<svg width="427" height="106" viewBox="0 0 427 106" fill="none" xmlns="http://www.w3.org/2000/svg">
<path fill-rule="evenodd" clip-rule="evenodd" d="M22.6019 9.50793C18.8212 12.1515 15.4024 15.2771 12.4346 18.7956C24.5625 17.6697 39.9706 19.5082 57.8593 28.4527C76.9621 38.0038 92.3444 38.3267 103.05 36.2617C102.078 33.3207 100.855 30.4941 99.407 27.8071C87.1522 29.0996 71.4415 27.3887 53.1321 18.2343C41.5055 12.421 31.2567 10.0263 22.6019 9.50793ZM92.2483 17.6177C82.5706 6.80483 68.5066 0 52.8531 0C48.2562 0 43.7959 0.586953 39.5439 1.68993C45.3027 3.26127 51.4205 5.56012 57.8593 8.77961C71.2645 15.4821 82.8377 17.6402 92.2483 17.6177ZM105.339 46.585C92.4055 49.1389 74.5461 48.6143 53.1321 37.9073C33.1124 27.8974 17.1784 28.0235 6.43197 30.4117C5.87727 30.5348 5.33563 30.6643 4.80708 30.7991C3.4001 33.859 2.277 37.0767 1.47117 40.4181C2.33185 40.1882 3.22122 39.9696 4.13883 39.7656C17.1761 36.8685 35.5968 36.9943 57.8593 48.1257C77.8793 58.1355 93.8132 58.0095 104.56 55.6213C104.928 55.5396 105.291 55.4551 105.648 55.3679C105.687 54.5346 105.706 53.6961 105.706 52.8531C105.706 50.7324 105.582 48.6407 105.339 46.585ZM103.922 66.5217C91.1143 68.7609 73.775 67.9015 53.1321 57.5803C33.1124 47.5704 17.1784 47.6965 6.43197 50.0847C4.04657 50.6145 1.9007 51.2601 0.00774299 51.9417C0.00258188 52.2448 0 52.5487 0 52.8531C0 82.0431 23.6631 105.706 52.8531 105.706C77.3164 105.706 97.898 89.0864 103.922 66.5217Z" fill="#0F52FF"/>
<path d="M179.823 51.3565C178.702 57.9832 176.5 63.5788 173.216 68.1434C169.953 72.688 165.979 76.1315 161.295 78.4738C156.63 80.8162 151.615 81.9874 146.249 81.9874C140.584 81.9874 135.679 80.7261 131.535 78.2035C127.39 75.681 124.377 72.0073 122.495 67.1825C120.634 62.3576 120.273 56.5017 121.414 49.6148C122.495 42.9881 124.668 37.3825 127.931 32.7979C131.214 28.2132 135.208 24.7397 139.913 22.3774C144.638 19.995 149.703 18.8038 155.108 18.8038C160.734 18.8038 165.609 20.0751 169.733 22.6176C173.877 25.1602 176.88 28.8539 178.742 33.6988C180.604 38.5436 180.964 44.4296 179.823 51.3565ZM164.958 49.6148C165.579 45.7509 165.579 42.4976 164.958 39.855C164.358 37.2123 163.176 35.2203 161.415 33.8789C159.653 32.5176 157.361 31.8369 154.538 31.8369C151.415 31.8369 148.592 32.6077 146.069 34.1492C143.567 35.6707 141.475 37.893 139.793 40.8159C138.111 43.7188 136.94 47.2324 136.279 51.3565C135.599 55.2605 135.579 58.5137 136.219 61.1164C136.88 63.719 138.111 65.6809 139.913 67.0023C141.715 68.3036 144.007 68.9542 146.79 68.9542C149.893 68.9542 152.686 68.2035 155.168 66.702C157.651 65.2005 159.723 63.0083 161.385 60.1254C163.066 57.2425 164.257 53.7389 164.958 49.6148Z" fill="#0F52FF"/>
<path d="M183.547 81.1465L193.757 19.6446H219.163C223.767 19.6446 227.601 20.5355 230.664 22.3173C233.727 24.0991 235.9 26.5916 237.181 29.7948C238.462 32.9981 238.752 36.7118 238.052 40.936C237.371 45.2003 235.84 48.9141 233.457 52.0773C231.095 55.2404 228.052 57.6929 224.328 59.4347C220.604 61.1764 216.37 62.0473 211.625 62.0473H195.979L197.931 50.3355H210.844C213.107 50.3355 215.059 49.9451 216.7 49.1643C218.362 48.3835 219.693 47.2924 220.694 45.891C221.695 44.4896 222.356 42.838 222.676 40.936C222.977 39.0341 222.856 37.3925 222.316 36.0111C221.775 34.6097 220.804 33.5286 219.403 32.7678C218.022 32.0071 216.22 31.6267 213.998 31.6267H206.67L198.412 81.1465H183.547Z" fill="#0F52FF"/>
<path d="M301.633 51.3565C300.512 57.9832 298.31 63.5788 295.027 68.1434C291.763 72.688 287.789 76.1315 283.105 78.4738C278.44 80.8162 273.425 81.9874 268.059 81.9874C262.394 81.9874 257.489 80.7261 253.345 78.2035C249.2 75.681 246.187 72.0073 244.306 67.1825C242.444 62.3576 242.083 56.5017 243.224 49.6148C244.306 42.9881 246.478 37.3825 249.741 32.7979C253.024 28.2132 257.018 24.7397 261.723 22.3774C266.448 19.995 271.513 18.8038 276.918 18.8038C282.544 18.8038 287.419 20.0751 291.543 22.6176C295.687 25.1602 298.69 28.8539 300.552 33.6988C302.414 38.5436 302.774 44.4296 301.633 51.3565ZM286.768 49.6148C287.389 45.7509 287.389 42.4976 286.768 39.855C286.168 37.2123 284.986 35.2203 283.225 33.8789C281.463 32.5176 279.171 31.8369 276.348 31.8369C273.225 31.8369 270.402 32.6077 267.879 34.1492C265.377 35.6707 263.285 37.893 261.603 40.8159C259.921 43.7188 258.75 47.2324 258.089 51.3565C257.409 55.2605 257.389 58.5137 258.029 61.1164C258.69 63.719 259.921 65.6809 261.723 67.0023C263.525 68.3036 265.817 68.9542 268.6 68.9542C271.703 68.9542 274.496 68.2035 276.978 66.702C279.461 65.2005 281.533 63.0083 283.195 60.1254C284.876 57.2425 286.068 53.7389 286.768 49.6148Z" fill="#0F52FF"/>
<path d="M368.36 51.3565C367.239 57.9832 365.037 63.5788 361.754 68.1434C358.49 72.688 354.516 76.1315 349.832 78.4738C345.167 80.8162 340.152 81.9874 334.787 81.9874C329.121 81.9874 324.216 80.7261 320.072 78.2035C315.928 75.681 312.915 72.0073 311.033 67.1825C309.171 62.3576 308.81 56.5017 309.952 49.6148C311.033 42.9881 313.205 37.3825 316.468 32.7979C319.751 28.2132 323.745 24.7397 328.45 22.3774C333.175 19.995 338.24 18.8038 343.645 18.8038C349.271 18.8038 354.146 20.0751 358.27 22.6176C362.414 25.1602 365.417 28.8539 367.279 33.6988C369.141 38.5436 369.502 44.4296 368.36 51.3565ZM353.495 49.6148C354.116 45.7509 354.116 42.4976 353.495 39.855C352.895 37.2123 351.714 35.2203 349.952 33.8789C348.19 32.5176 345.898 31.8369 343.075 31.8369C339.952 31.8369 337.129 32.6077 334.606 34.1492C332.104 35.6707 330.012 37.893 328.33 40.8159C326.648 43.7188 325.477 47.2324 324.817 51.3565C324.136 55.2605 324.116 58.5137 324.756 61.1164C325.417 63.719 326.648 65.6809 328.45 67.0023C330.252 68.3036 332.544 68.9542 335.327 68.9542C338.43 68.9542 341.223 68.2035 343.706 66.702C346.188 65.2005 348.26 63.0083 349.922 60.1254C351.604 57.2425 352.795 53.7389 353.495 49.6148Z" fill="#0F52FF"/>
<path d="M412.415 38.2033C412.575 35.941 411.974 34.1893 410.613 32.948C409.272 31.7068 407.149 31.0861 404.246 31.0861C402.325 31.0861 400.683 31.3364 399.322 31.8369C397.96 32.3174 396.889 32.9981 396.108 33.8789C395.328 34.7398 394.837 35.7408 394.637 36.882C394.457 37.7829 394.507 38.5837 394.787 39.2844C395.067 39.9851 395.558 40.6057 396.258 41.1463C396.979 41.6868 397.87 42.1573 398.931 42.5577C400.012 42.9581 401.223 43.3084 402.565 43.6087L407.61 44.8099C410.533 45.4706 413.065 46.3515 415.208 47.4526C417.37 48.5337 419.121 49.845 420.463 51.3866C421.804 52.9081 422.725 54.6599 423.226 56.6418C423.726 58.6238 423.766 60.8461 423.346 63.3086C422.705 67.1925 421.174 70.5258 418.751 73.3086C416.349 76.0914 413.205 78.2236 409.322 79.7051C405.458 81.1865 400.963 81.9273 395.838 81.9273C390.713 81.9273 386.358 81.1565 382.775 79.615C379.211 78.0534 376.629 75.701 375.027 72.5579C373.425 69.4147 372.995 65.4507 373.736 60.6659H387.94C387.72 62.6479 387.97 64.2996 388.691 65.6209C389.432 66.9422 390.573 67.9432 392.114 68.6239C393.656 69.3046 395.518 69.6449 397.7 69.6449C399.702 69.6449 401.454 69.3747 402.955 68.8341C404.477 68.2936 405.688 67.5428 406.589 66.5819C407.51 65.6209 408.07 64.5198 408.271 63.2785C408.471 62.1374 408.281 61.1464 407.7 60.3055C407.139 59.4647 406.178 58.734 404.817 58.1133C403.476 57.4927 401.714 56.9321 399.532 56.4316L393.376 54.9301C388.29 53.6889 384.437 51.7069 381.814 48.9841C379.211 46.2614 378.29 42.5677 379.051 37.903C379.692 34.0791 381.273 30.7358 383.796 27.8729C386.338 25.01 389.552 22.7878 393.436 21.2062C397.34 19.6046 401.634 18.8038 406.319 18.8038C411.083 18.8038 415.087 19.6146 418.331 21.2362C421.594 22.8378 423.946 25.1001 425.388 28.023C426.849 30.926 427.27 34.3194 426.649 38.2033H412.415Z" fill="#0F52FF"/>
</svg>
